<svg width="56" height="56" viewBox="0 0 56 56" fill="none" xmlns="http://www.w3.org/2000/svg">
<g clip-path="url(#clip0_602_11)">
<path d="M46.7031 0H9.29688C4.16235 0 0 4.26225 0 9.52V46.3904C0 51.6482 4.16235 55.9104 9.29688 55.9104H46.7031C51.8376 55.9104 56 51.6482 56 46.3904V9.52C56 4.26225 51.8376 0 46.7031 0Z" fill="#470137"/>
<path d="M29.4393 15.7034L22.4517 27.5133L29.9275 40.054C29.9756 40.1418 29.989 40.2448 29.9651 40.3425C29.9535 40.3841 29.9286 40.3944 29.8903 40.396L29.8479 40.3953L29.7963 40.394C29.7683 40.394 29.737 40.3953 29.7022 40.4012H24.3122L24.2063 40.3994C23.9158 40.3915 23.7065 40.349 23.5789 40.1308C23.0802 39.1359 22.5793 38.1421 22.0761 37.1496C21.6261 36.2643 21.1637 35.3856 20.6893 34.5138L20.4797 34.1298C19.9122 33.097 19.3549 32.0584 18.808 31.014H18.7704C18.2653 32.0474 17.7456 33.0733 17.2114 34.0913C16.6726 35.1172 16.1403 36.1369 15.6147 37.1496C15.0887 38.1631 14.5503 39.1697 13.9994 40.1693C13.9108 40.3732 13.7636 40.4157 13.5587 40.4227L13.4733 40.424H8.32682L8.30451 40.4247L8.23101 40.4314C8.1901 40.4339 8.1656 40.4249 8.15772 40.3617C8.14361 40.2679 8.1637 40.1721 8.21416 40.0925L15.4644 27.8979L8.40185 15.6653C8.32682 15.5631 8.31435 15.4798 8.36422 15.4153C8.39195 15.3824 8.42676 15.3566 8.4659 15.3399C8.50504 15.3232 8.54744 15.316 8.58976 15.319H13.8866C14.0021 15.3125 14.1176 15.3322 14.2248 15.3768C14.3144 15.429 14.3917 15.5013 14.4501 15.5884C14.9009 16.6144 15.4019 17.6403 15.9529 18.6658C16.4996 19.6848 17.0569 20.6978 17.6246 21.7048C18.1835 22.6961 18.7036 23.7099 19.1836 24.7438H19.2212C19.7131 23.7102 20.2203 22.6843 20.7426 21.6665C21.2556 20.6663 21.7817 19.6594 22.3203 18.6465C22.852 17.6466 23.3717 16.64 23.8793 15.627C23.9082 15.532 23.9598 15.446 24.0296 15.3768C24.1224 15.3287 24.2266 15.3086 24.3301 15.319H29.2513C29.2966 15.3074 29.3443 15.3112 29.3872 15.3298C29.4302 15.3484 29.4661 15.3808 29.4895 15.4221C29.5129 15.4633 29.5227 15.5113 29.5172 15.5587C29.5117 15.6061 29.4914 15.6504 29.4592 15.685L29.4395 15.7038L29.4393 15.7034ZM40.4796 40.8973L40.2206 40.9002C38.4914 40.9272 36.7782 40.5593 35.2053 39.8232C33.7401 39.1288 32.5152 37.9953 31.6928 36.5725C30.8635 35.1622 30.4379 33.4047 30.4164 31.3007L30.4155 31.1293C30.4015 29.3638 30.8421 27.6256 31.693 26.09C32.5447 24.5701 33.7862 23.3178 35.2832 22.4688L35.412 22.3972C37.0395 21.4738 39.0056 21.0122 41.3099 21.0122L41.4106 21.0133L41.5256 21.0171L41.6547 21.0229L41.7982 21.0314L42.0393 21.0489L42.3123 21.0713L42.512 21.0892V13.5108C42.512 13.3316 42.5872 13.2416 42.7373 13.2416H47.4708C47.5014 13.2371 47.5326 13.24 47.562 13.25C47.5913 13.26 47.618 13.2768 47.6398 13.2992C47.6617 13.3216 47.6782 13.3489 47.688 13.379C47.6977 13.409 47.7005 13.441 47.6961 13.4723V36.2072C47.6961 36.5889 47.7106 37.0002 47.7394 37.4401L47.8094 38.438L47.8466 39.0153C47.8513 39.0952 47.8322 39.1747 47.792 39.2434C47.7517 39.312 47.6922 39.3667 47.6211 39.4001C46.4 39.9215 45.128 40.3083 43.8269 40.5539C42.7223 40.7627 41.6027 40.8776 40.4796 40.8973V40.8973ZM42.512 36.1301V25.6283C42.309 25.5721 42.1016 25.5335 41.8923 25.513C41.6363 25.4866 41.3793 25.4738 41.122 25.4745C40.2105 25.4652 39.3096 25.6761 38.4924 26.09C37.6965 26.4951 37.017 27.1049 36.5202 27.8596C36.0243 28.6024 35.7677 29.5723 35.7509 30.7694L35.75 30.8986C35.7317 31.7371 35.8654 32.5718 36.1444 33.3604C36.3715 33.9959 36.7305 34.5734 37.1966 35.0531C37.6426 35.4944 38.1827 35.8236 38.7742 36.0148C39.399 36.222 40.0521 36.3259 40.7088 36.3228C41.0593 36.3228 41.3848 36.3098 41.6855 36.284C41.9254 36.2656 42.1632 36.2251 42.396 36.1631L42.512 36.1301V36.1301Z" fill="#FF61F6"/>
</g>
<defs>
<clipPath id="clip0_602_11">
<rect width="56" height="56" fill="white"/>
</clipPath>
</defs>
</svg>
