<svg width="56" height="56" viewBox="0 0 56 56" fill="none" xmlns="http://www.w3.org/2000/svg">
<g clip-path="url(#clip0_602_8)">
<path d="M46.7031 0H9.29688C4.16235 0 0 4.26225 0 9.52V46.3904C0 51.6482 4.16235 55.9104 9.29688 55.9104H46.7031C51.8376 55.9104 56 51.6482 56 46.3904V9.52C56 4.26225 51.8376 0 46.7031 0Z" fill="#00005B"/>
<path d="M22.4968 33.4506H13.8188L12.0531 39.0777C12.0304 39.1741 11.9775 39.2603 11.9023 39.3229C11.8272 39.3855 11.734 39.4211 11.6372 39.4242L7.20708 39.424C6.9564 39.424 6.86868 39.2829 6.94415 39.0006L14.4576 16.9346L14.5326 16.7028L14.5575 16.6235L14.6078 16.4577C14.6328 16.3722 14.6577 16.2814 14.6829 16.1831C14.7813 15.6699 14.8316 15.1482 14.8331 14.6252C14.8281 14.5886 14.8314 14.5513 14.8428 14.5163C14.8542 14.4813 14.8734 14.4494 14.8989 14.4233C14.9244 14.3972 14.9555 14.3775 14.9898 14.3658C15.024 14.3541 15.0604 14.3507 15.0961 14.3559H21.0693C21.2443 14.3559 21.3442 14.42 21.3698 14.5483L29.8974 39.0394C29.9724 39.2959 29.8974 39.4242 29.6721 39.424H24.7882C24.7044 39.4335 24.62 39.4114 24.5509 39.3619C24.4817 39.3123 24.4326 39.2387 24.4126 39.1547L22.4968 33.4506V33.4506ZM15.1713 28.706H21.1069L21.0222 28.42L20.8864 27.9671L20.6876 27.3184L20.3058 26.0938L19.9423 24.9169L19.2659 22.7241C19.079 22.1188 18.8996 21.5111 18.7278 20.9012L18.5357 20.2077L18.3283 19.4477L18.1389 18.7427H18.1013C17.9134 19.6661 17.6845 20.5802 17.4153 21.4823L17.1615 22.3162L16.5512 24.3322L16.2419 25.3593C16.1859 25.5447 16.1303 25.7282 16.0746 25.9094L15.9083 26.4466L15.7429 26.9712L15.5784 27.4828L15.4148 27.9816C15.3334 28.228 15.2521 28.4693 15.1713 28.706V28.706ZM43.7221 31.2605H36.3216C36.4123 32.0103 36.6554 32.7322 37.0354 33.3798C37.4555 34.0211 38.0496 34.5225 38.7445 34.8224C39.6864 35.2397 40.705 35.4442 41.7311 35.4218C42.5451 35.4058 43.3561 35.3146 44.1542 35.1494C44.8679 35.0508 45.5674 34.8641 46.2373 34.5934C46.3625 34.4913 46.4255 34.5549 46.4255 34.7856V38.4402C46.4316 38.5399 46.4121 38.6393 46.3688 38.7287C46.3259 38.7986 46.2682 38.8577 46.1999 38.9019C45.4568 39.239 44.6746 39.4776 43.8724 39.6119C42.7827 39.8215 41.6751 39.918 40.5665 39.9002C38.8436 39.9002 37.3913 39.6354 36.2096 39.1061L36.0959 39.0539C34.9599 38.5415 33.9566 37.7643 33.1659 36.7844C32.4273 35.861 31.8779 34.7948 31.5505 33.6493C31.2264 32.5186 31.0621 31.3462 31.0624 30.1679C31.059 28.8812 31.2556 27.6021 31.6447 26.3787C32.0195 25.1853 32.6123 24.0758 33.3915 23.109C34.16 22.1534 35.1211 21.3791 36.209 20.8392C37.3108 20.2881 38.6132 20.0903 40.1158 20.0903C41.3621 20.0581 42.5999 20.3076 43.7412 20.8212C44.7008 21.2403 45.5455 21.8936 46.2017 22.7241C46.8171 23.5374 47.2876 24.4554 47.5916 25.4361C47.8876 26.3812 48.0397 27.3673 48.0425 28.3597C48.0425 28.9242 48.0236 29.4372 47.9862 29.8986L47.9528 30.2938L47.9178 30.6687L47.897 30.8587C47.8954 30.8721 47.8938 30.8854 47.8922 30.8988C47.8824 30.9836 47.8426 31.0617 47.7803 31.1185C47.718 31.1752 47.6376 31.2065 47.5542 31.2066L47.4512 31.2088L47.3228 31.2155L47.2228 31.2229L46.9892 31.2433L46.784 31.2641C46.7282 31.2702 46.6702 31.2758 46.6101 31.2809L46.4239 31.2959L46.2251 31.3094L46.014 31.3206L45.7904 31.3302L45.6738 31.3342L45.4317 31.341C45.1921 31.347 44.9467 31.3318 44.6949 31.313L44.313 31.2843C44.1164 31.2695 43.9194 31.2616 43.7224 31.2605H43.7221ZM36.3216 27.7561H41.4373L41.8731 27.7531L42.1692 27.7489L42.3611 27.7444L42.5763 27.7368C42.769 27.7171 42.955 27.654 43.121 27.552V27.3213C43.1135 27.0204 43.063 26.7223 42.971 26.4365C42.7683 25.7802 42.3608 25.2101 41.8111 24.814C41.2614 24.4178 40.5999 24.2174 39.9282 24.2435C39.2959 24.2044 38.6662 24.3545 38.1158 24.6755C37.5654 24.9966 37.1182 25.4747 36.8287 26.0516C36.5713 26.5883 36.4001 27.1639 36.3216 27.7563V27.7561Z" fill="#9999FF"/>
</g>
<defs>
<clipPath id="clip0_602_8">
<rect width="56" height="56" fill="white"/>
</clipPath>
</defs>
</svg>
