<svg width="56" height="56" viewBox="0 0 56 56" fill="none" xmlns="http://www.w3.org/2000/svg">
<path d="M47.9378 0H8.06219C3.60957 0 0 3.60957 0 8.06219V47.9378C0 52.3904 3.60957 56 8.06219 56H47.9378C52.3904 56 56 52.3904 56 47.9378V8.06219C56 3.60957 52.3904 0 47.9378 0Z" fill="black"/>
<g clip-path="url(#clip0_602_14)">
<path d="M29.0823 9.00001C18.5405 8.98893 9.99525 17.569 10 27.962C10.0048 38.5355 18.6688 46.9699 28.9652 47C39.3123 47.0317 48.0554 38.5988 48 28.0032C47.9858 25.3669 47.1608 19.4991 45.0867 19.6495C41.9517 19.8791 41.6683 26.1728 41.3231 28.2106C40.6628 32.1056 39.1919 36.2539 36.6475 39.2781C33.6708 43.0132 29.2106 45.0319 24.516 44.2783C18.8952 43.3853 15.1854 39.0881 13.9393 36.0433C12.7471 33.3153 12.3006 29.4535 13.8285 26.0303C15.6652 21.6508 19.7407 18.6963 23.7718 17.189C26.948 15.8796 30.2683 15.3666 32.2538 15.0119C36.2374 14.2203 36.7742 12.6955 36.7093 11.6093C36.6855 11.2103 36.3039 10.463 35.4663 10.1163C33.7975 9.42593 31.0077 9.00159 29.0823 9.00001ZM37.1542 11.1248C37.3743 11.755 37.2935 12.4707 36.9198 13.1135C36.4053 14.0002 35.3808 14.776 33.9163 15.156C31.3259 15.8337 29.2043 16.0332 27.0446 16.676C24.9673 17.2935 21.666 18.2878 18.6276 20.7167C18.2033 22.0498 18.0877 23.7123 18.0433 24.9315C18.2808 32.8703 25.2586 38.9978 32.5625 38.678C33.9131 38.6194 35.6041 38.2648 37.1732 37.6013C38.0611 36.2715 38.7977 34.8466 39.3693 33.3533L39.3724 33.3501V33.3469C40.0438 31.7161 40.3319 30.4399 40.6391 28.9247C41.1458 26.4468 40.9589 24.3647 42.2414 21.3912C42.6388 20.4697 43.3656 19.6289 44.2333 19.26C44.6291 19.0938 45.0598 19.0494 45.4841 19.146C44.0749 15.2336 40.552 12.2965 37.1558 11.1248H37.1542Z" fill="white"/>
</g>
<path d="M25.8033 23.6085C25.8033 24.2853 25.5345 24.9344 25.0559 25.413C24.5773 25.8916 23.9281 26.1605 23.2513 26.1605C22.5744 26.1605 21.9253 25.8916 21.4467 25.413C20.9681 24.9344 20.6992 24.2853 20.6992 23.6085C20.6992 22.9316 20.9681 22.2825 21.4467 21.8039C21.9253 21.3253 22.5744 21.0564 23.2513 21.0564C23.9281 21.0564 24.5773 21.3253 25.0559 21.8039C25.5345 22.2825 25.8033 22.9316 25.8033 23.6085V23.6085Z" fill="black"/>
<defs>
<clipPath id="clip0_602_14">
<rect width="38" height="38" fill="white" transform="translate(10 9)"/>
</clipPath>
</defs>
</svg>
