<svg width="56" height="56" viewBox="0 0 56 56" fill="none" xmlns="http://www.w3.org/2000/svg">
<path d="M47.9378 0H8.06219C3.60957 0 0 3.60957 0 8.06219V47.9378C0 52.3904 3.60957 56 8.06219 56H47.9378C52.3904 56 56 52.3904 56 47.9378V8.06219C56 3.60957 52.3904 0 47.9378 0Z" fill="black"/>
<g clip-path="url(#clip0_602_25)">
<path d="M21.5 48C25.088 48 28 45.088 28 41.5V35H21.5C17.912 35 15 37.912 15 41.5C15 45.088 17.912 48 21.5 48Z" fill="#0ACF83"/>
<path d="M15 28.5C15 24.912 17.912 22 21.5 22H28V35H21.5C17.912 35 15 32.088 15 28.5Z" fill="#A259FF"/>
<path d="M15 15.5C15 11.912 17.912 9 21.5 9H28V22H21.5C17.912 22 15 19.088 15 15.5Z" fill="#F24E1E"/>
<path d="M28 9H34.5C38.088 9 41 11.912 41 15.5C41 19.088 38.088 22 34.5 22H28V9Z" fill="#FF7262"/>
<path d="M41 28.5C41 32.088 38.088 35 34.5 35C30.912 35 28 32.088 28 28.5C28 24.912 30.912 22 34.5 22C38.088 22 41 24.912 41 28.5Z" fill="#1ABCFE"/>
</g>
<defs>
<clipPath id="clip0_602_25">
<rect width="26" height="39" fill="white" transform="translate(15 9)"/>
</clipPath>
</defs>
</svg>
