<svg width="56" height="56" viewBox="0 0 56 56" fill="none" xmlns="http://www.w3.org/2000/svg">
<g clip-path="url(#clip0_602_5)">
<path d="M47.9378 0H8.06219C3.60957 0 0 3.60957 0 8.06219V47.9378C0 52.3904 3.60957 56 8.06219 56H47.9378C52.3904 56 56 52.3904 56 47.9378V8.06219C56 3.60957 52.3904 0 47.9378 0Z" fill="#2C100F"/>
<path fill-rule="evenodd" clip-rule="evenodd" d="M28.6638 35.0368H20.5411L18.9967 39.6546H14.0732L22.4391 17.1671H26.735L35.1528 39.6546H30.2245L28.6638 35.0368ZM21.7904 31.2733H27.4144L24.589 22.8498L21.7895 31.2733H21.7904ZM41.6629 39.6546H37.1873V22.9555H41.6629V39.6546V39.6546ZM36.924 18.6433C36.924 17.9792 37.145 17.4256 37.5938 16.9932C38.0417 16.5607 38.6529 16.3445 39.4284 16.3445C40.204 16.3445 40.7941 16.5607 41.2467 16.9932C41.7004 17.4256 41.9272 17.9792 41.9272 18.6433C41.9272 19.3074 41.7004 19.8821 41.2419 20.3145C40.7835 20.747 40.1771 20.9632 39.4284 20.9632C38.6798 20.9632 38.0686 20.747 37.6102 20.3145C37.1517 19.8821 36.9249 19.3237 36.9249 18.6433H36.924Z" fill="#F7991C"/>
</g>
<defs>
<clipPath id="clip0_602_5">
<rect width="56" height="56" fill="white"/>
</clipPath>
</defs>
</svg>
