<svg width="56" height="56" viewBox="0 0 56 56" fill="none" xmlns="http://www.w3.org/2000/svg">
<path d="M47.9378 0H8.06219C3.60957 0 0 3.60957 0 8.06219V47.9378C0 52.3904 3.60957 56 8.06219 56H47.9378C52.3904 56 56 52.3904 56 47.9378V8.06219C56 3.60957 52.3904 0 47.9378 0Z" fill="#401020"/>
<path fill-rule="evenodd" clip-rule="evenodd" d="M15.9512 40.1735V17.2978H20.1548V40.1735H15.9512ZM32.2524 37.3711C32.6493 37.3711 33.0289 37.3183 33.3912 37.2193C33.7478 37.1145 34.0861 36.9742 34.407 36.8051C34.728 36.6302 35.0087 36.4428 35.2537 36.239C35.4988 36.0286 35.7093 35.8306 35.8784 35.6374V27.7665C35.3998 27.3753 34.8626 27.0543 34.2725 26.791C33.6767 26.5344 33.0462 26.4056 32.3869 26.4056C31.966 26.4056 31.523 26.4931 31.0617 26.6622C30.6004 26.8314 30.1804 27.1235 29.795 27.5377C29.4154 27.9462 29.0944 28.519 28.8378 29.2484C28.5812 29.9778 28.4524 30.912 28.4524 32.0393C28.4524 33.7096 28.7734 35.0108 29.4212 35.945C30.0631 36.8849 31.0088 37.3577 32.2533 37.3692L32.2524 37.3711ZM24.2479 32.2151C24.2479 30.7669 24.4458 29.4714 24.8495 28.3383C25.2464 27.2052 25.7951 26.2538 26.4842 25.483C27.1733 24.7123 27.9671 24.1405 28.8551 23.7551C29.7489 23.3755 30.6705 23.1833 31.6287 23.1833C32.0784 23.1833 32.4984 23.2246 32.9011 23.3005C33.298 23.3822 33.6776 23.4927 34.0284 23.6273C34.3849 23.7676 34.7117 23.9194 35.0212 24.0886C35.3306 24.2635 35.617 24.4393 35.8794 24.62H35.914C35.9024 24.3922 35.8909 24.0713 35.8851 23.6571C35.8794 23.2371 35.8794 22.7873 35.8794 22.2962V15.4065H39.9427V35.2463C39.9427 36.3438 39.9542 37.2837 39.9782 38.0727C40.0013 38.855 40.0253 39.5614 40.0484 40.1745H36.3762L36.2071 38.4052H36.1369C35.8976 38.6916 35.6112 38.9713 35.2729 39.2461C34.9347 39.5143 34.5666 39.7545 34.1581 39.9525C33.7555 40.1514 33.3057 40.3091 32.8213 40.4253C32.337 40.5359 31.8113 40.5945 31.2395 40.5945C30.3341 40.5945 29.4702 40.4369 28.6418 40.1159C27.8181 39.7949 27.0772 39.3048 26.4169 38.6388C25.7634 37.967 25.2377 37.0972 24.8408 36.017C24.4497 34.9426 24.2507 33.6759 24.2507 32.2161L24.2479 32.2151Z" fill="#E64869"/>
</svg>
