<svg width="56" height="56" viewBox="0 0 56 56" fill="none" xmlns="http://www.w3.org/2000/svg">
<g clip-path="url(#clip0_602_22)">
<path d="M46.7031 0H9.29688C4.16235 0 0 4.26225 0 9.52V46.3904C0 51.6482 4.16235 55.9104 9.29688 55.9104H46.7031C51.8376 55.9104 56 51.6482 56 46.3904V9.52C56 4.26225 51.8376 0 46.7031 0Z" fill="#001E36"/>
<path d="M12.6094 39.2078V14.6265C12.6094 14.4473 12.6846 14.3573 12.8349 14.3573L13.0727 14.3566L13.4791 14.3521L14.0439 14.3407L15.9361 14.2997L17.965 14.2612C18.6786 14.2486 19.386 14.2419 20.0873 14.2419C21.9905 14.2419 23.5932 14.4856 24.8959 14.9728C26.071 15.3798 27.1426 16.05 28.0328 16.9346C28.7874 17.7014 29.3706 18.6268 29.7421 19.6468C30.0935 20.6394 30.2716 21.6876 30.2682 22.7434C30.2682 24.7954 29.8047 26.488 28.878 27.8212C27.9717 29.1219 26.7075 30.1167 25.2468 30.6786L25.1214 30.7256C23.5961 31.3082 21.9069 31.5188 20.0543 31.532L19.7664 31.5329L19.3392 31.5307L19.1238 31.5275L18.8836 31.5217L18.7388 31.5159L18.6508 31.5112L18.4345 31.5031L18.17 31.4975L17.7719 31.4946L17.6833 31.4944V39.1693C17.6899 39.2164 17.6857 39.2643 17.671 39.3094C17.6563 39.3545 17.6316 39.3955 17.5988 39.4291C17.566 39.4627 17.526 39.488 17.4819 39.503C17.4379 39.518 17.391 39.5224 17.3451 39.5156H12.8725C12.6969 39.5156 12.6094 39.4135 12.6094 39.2078V39.2078ZM17.6835 18.9735V26.9909C17.9833 27.0156 18.284 27.0285 18.5847 27.0294H19.8246C20.6794 27.0265 21.5293 26.8961 22.3475 26.6426L22.5107 26.5904C23.255 26.364 23.9201 25.9233 24.4267 25.3207C24.8974 24.7522 25.1413 23.9689 25.1582 22.9705L25.1593 22.8587C25.179 22.1146 24.99 21.3803 24.6144 20.7431C24.2196 20.1267 23.6491 19.6499 22.9803 19.3773C22.1071 19.0298 21.1743 18.8663 20.2378 18.8966L19.7614 18.898L19.4608 18.9007L19.1741 18.9045L18.7694 18.9125L18.4741 18.921L18.3207 18.9269L18.1158 18.9367L17.9412 18.9477L17.8417 18.9558L17.7557 18.9643L17.7178 18.9688L17.6835 18.9735V18.9735ZM44.7932 25.5331C44.1379 25.1882 43.4427 24.9292 42.7243 24.7621L42.558 24.7253C41.7676 24.5396 40.9606 24.4373 40.1498 24.42L39.9472 24.4176C39.4719 24.4044 38.9973 24.4627 38.5385 24.5907C38.2464 24.6572 37.9868 24.8275 37.8057 25.0714C37.6832 25.2666 37.6181 25.4936 37.618 25.7255C37.6248 25.9504 37.704 26.1667 37.8433 26.3408C38.0427 26.5796 38.2824 26.7797 38.5509 26.9315L38.6323 26.9756C39.1679 27.271 39.7198 27.5342 40.2852 27.7641C41.546 28.1963 42.7507 28.7841 43.8727 29.5145C44.6372 30.0085 45.2698 30.6893 45.7137 31.4957C46.0869 32.2592 46.2738 33.1039 46.2584 33.9575C46.2809 35.0848 45.9662 36.1923 45.3567 37.1314C44.7041 38.0845 43.7978 38.8255 42.7457 39.2661C41.6438 39.762 40.2907 40.018 38.6863 40.0348L38.5197 40.0357C37.5251 40.046 36.5319 39.9569 35.5543 39.7696L35.3452 39.728C34.522 39.5734 33.7207 39.3149 32.9597 38.9585C32.8832 38.9181 32.8186 38.8576 32.7724 38.7832C32.7262 38.7088 32.7001 38.6232 32.6968 38.5352V34.3423C32.6923 34.3016 32.6986 34.2604 32.7152 34.2232C32.7318 34.1859 32.7579 34.1539 32.7908 34.1306C32.8231 34.112 32.8601 34.1038 32.897 34.1073C32.9339 34.1107 32.9689 34.1256 32.9973 34.1499C33.8961 34.6926 34.872 35.0885 35.8898 35.3232C36.7871 35.5536 37.7074 35.6762 38.6323 35.6888C39.5086 35.6888 40.1535 35.5732 40.5669 35.3425C40.7536 35.255 40.9115 35.1139 41.0216 34.9364C41.1316 34.7589 41.189 34.5526 41.1869 34.3423C41.1869 34.0095 40.999 33.6887 40.6234 33.3807C40.4659 33.2517 40.2399 33.1112 39.9459 32.9596L39.8053 32.8888L39.6552 32.8164L39.5764 32.7797L39.4115 32.7049C39.3829 32.6921 39.3542 32.6794 39.3255 32.6668L39.1462 32.5898L39.0528 32.5506L38.8589 32.471L38.7583 32.4307L38.5498 32.3485L38.3318 32.265C37.1521 31.8445 36.0337 31.2622 35.007 30.5339C34.2727 30.0109 33.6681 29.3193 33.2414 28.5143C32.872 27.7563 32.6852 26.9187 32.6968 26.0716C32.6947 25.0538 32.9677 24.0552 33.4856 23.1865C34.0762 22.23 34.9241 21.4684 35.9275 20.9939C37.0293 20.4301 38.4066 20.1479 40.0597 20.1474C41.0279 20.1395 41.9951 20.2103 42.9524 20.3591C43.6456 20.4491 44.3233 20.6368 44.9662 20.9169C45.0697 20.9474 45.153 21.0255 45.1915 21.1286C45.2171 21.2224 45.2296 21.3194 45.2292 21.4171V25.3024C45.2346 25.3942 45.1915 25.4822 45.1165 25.5331C45.0663 25.5587 45.0109 25.572 44.9548 25.572C44.8988 25.572 44.8434 25.5587 44.7932 25.5331V25.5331Z" fill="#31A8FF"/>
</g>
<defs>
<clipPath id="clip0_602_22">
<rect width="56" height="56" fill="white"/>
</clipPath>
</defs>
</svg>
