<svg width="56" height="56" viewBox="0 0 56 56" fill="none" xmlns="http://www.w3.org/2000/svg">
<g clip-path="url(#clip0_602_2)">
<path d="M9.91659 0H46.0834C51.5666 0 56 4.53981 56 10.1546V45.7558C56 51.3706 51.5666 55.9104 46.0834 55.9104H9.91659C4.43341 55.9104 0 51.3706 0 45.7558V10.1546C0 4.53981 4.43341 0 9.91659 0Z" fill="#00005B"/>
<path d="M13.2998 39.209V14.6227C13.2998 14.4554 13.3698 14.36 13.5332 14.36L13.8718 14.3593L14.1339 14.3571L14.3187 14.3535L14.5156 14.3483L14.7271 14.3407L14.8398 14.336C15.0498 14.327 15.2631 14.3214 15.4807 14.3167L16.149 14.3024C16.2249 14.3006 16.3017 14.2986 16.3789 14.2961L16.613 14.2883C16.823 14.2802 17.0382 14.2749 17.2587 14.2704L17.9353 14.2581L18.4037 14.2475L18.6432 14.2404C19.1253 14.2247 19.5972 14.2193 20.0655 14.2175L20.7664 14.2166C22.6798 14.2166 24.2664 14.4554 25.5732 14.9572C26.7445 15.3645 27.8126 16.0338 28.6998 16.9165C29.4517 17.6889 30.0326 18.6178 30.4032 19.6403C30.7532 20.6438 30.9398 21.6713 30.9398 22.7465C30.9398 24.8013 30.4732 26.4976 29.5398 27.8358C28.6064 29.1738 27.2998 30.1773 25.7832 30.7507C24.2493 31.3282 22.563 31.5482 20.724 31.5623H20.057L19.7973 31.5596L19.6309 31.5556L19.5329 31.5513L19.4449 31.5459L19.3664 31.5392C19.316 31.5342 19.2656 31.5303 19.215 31.5276L19.1013 31.5224L18.9766 31.519L18.7686 31.5161L18.3632 31.5152V39.185C18.3864 39.3523 18.2698 39.4957 18.1064 39.5197H13.5798C13.3932 39.5197 13.2998 39.424 13.2998 39.209V39.209ZM18.3864 18.9712V26.9994L18.6607 27.0196C18.8722 27.0361 19.0843 27.0454 19.2964 27.0473H20.5332C21.4432 27.0473 22.3532 26.904 23.2164 26.6173C23.9632 26.4022 24.6164 25.9482 25.1298 25.3508C25.6198 24.7536 25.8532 23.9411 25.8532 22.8899C25.8752 22.1432 25.689 21.4055 25.3164 20.7632C24.9364 20.1681 24.4062 19.7044 23.7672 19.4354L23.6832 19.4013C22.8198 19.0429 21.8864 18.8996 20.9298 18.9235L20.3904 18.9242L20.1368 18.9258L19.8947 18.9291L19.6648 18.9345C19.5528 18.9376 19.4454 18.9419 19.3432 18.9475C19.2931 18.9449 19.2429 18.9428 19.1927 18.9412L19.0529 18.9381C19.0311 18.9378 19.0092 18.9377 18.9873 18.9376L18.8635 18.9383L18.7511 18.9414L18.699 18.9437L18.6034 18.9493L18.5194 18.956L18.4816 18.9596L18.4153 18.9674L18.3864 18.9712V18.9712ZM34.2064 20.3571H38.2898C38.5101 20.3571 38.689 20.5063 38.7671 20.7041L38.7798 20.7395C38.8498 20.9306 38.8964 21.1216 38.9198 21.3367C38.9664 21.5757 39.0132 21.8384 39.0364 22.0774L39.0561 22.3086C39.0714 22.506 39.0832 22.7158 39.0832 22.9376C39.7514 22.1387 40.5528 21.4675 41.4501 20.9554L41.5798 20.8829C42.6532 20.2615 43.8898 19.951 45.1264 19.951C45.2898 19.927 45.4298 20.0464 45.4532 20.2138V24.9686C45.4532 25.1597 45.3364 25.2314 45.0798 25.2314C44.2958 25.209 43.4917 25.2701 42.7239 25.4336L42.5598 25.4704C41.8832 25.6137 41.2298 25.8288 40.5998 26.1155C40.1564 26.3305 39.7364 26.6173 39.4098 26.9994V39.185C39.4098 39.424 39.3164 39.5197 39.1064 39.5197H34.5098C34.3232 39.5434 34.1598 39.424 34.1364 39.2329V25.9005C34.1364 25.327 34.1364 24.7296 34.1132 24.1085L34.0992 23.6425L34.0804 22.7107C34.0767 22.5552 34.0723 22.4 34.0664 22.2448C34.0664 21.6951 34.0198 21.1696 33.9732 20.6199C33.9498 20.5005 34.0198 20.3811 34.1364 20.3571C34.1364 20.3367 34.1707 20.3338 34.1952 20.3482L34.2064 20.3571V20.3571Z" fill="#9999FF"/>
</g>
<defs>
<clipPath id="clip0_602_2">
<rect width="56" height="56" fill="white"/>
</clipPath>
</defs>
</svg>
